<?xm	 version="1.0" encoding="utf-8"?>
<!-- Generator: Adobe Illustrator 16.0.3, SVG Export Plug-In . SVG Version: 6.00 Build 0)  -->
<!DOCTYPE svg PUBLIC "-//W3C//DTD SVG 1.1//EN" "http://www.w3.org/Graphics/SVG/1.1/DTD/svg11.dtd">
<svg version="1.1" id="Capa_1" xmlns="http://www.w3.org/2000/svg" xmlns:xlink="http://www.w3.org/1999/xlink" x="0px" y="0px"
	 width="183.5px" height="52.5px" viewBox="0 0 183.5 52.5" enable-background="new 0 0 183.5 52.5" xml:space="preserve">
<g>
	<g>
		<path fill-rule="evenodd" clip-rule="evenodd" fill="#FFFFFF" d="M46.8,4.253c-1.158,5.806-3.114,11.399-4.599,17.118
			c-0.87,3.355-0.921,3.342-4.38,3.342c-5.346,0-10.692-0.041-16.037,0.021c-1.948,0.022-2.427-0.652-1.891-2.531
			c1.702-5.964,3.283-11.964,4.91-17.95C32.136,4.253,39.468,4.253,46.8,4.253z"/>
		<path fill-rule="evenodd" clip-rule="evenodd" fill="#FFFFFF" d="M27.444,48.246c1.156-5.806,3.082-11.406,4.587-17.119
			c0.883-3.353,0.927-3.34,4.399-3.34c5.345-0.001,10.691,0.036,16.036-0.02c1.936-0.021,2.426,0.638,1.884,2.53
			c-1.708,5.961-3.283,11.963-4.91,17.948C42.108,48.246,34.775,48.246,27.444,48.246z"/>
		<path fill-rule="evenodd" clip-rule="evenodd" fill="#FFFFFF" d="M58.77,14.481c-0.985,2.604-1.43,5.225-2.175,7.925
			c-0.475,1.726-1.202,2.438-3.019,2.345c-2.632-0.134-5.276-0.054-7.915-0.028c-1.584,0.016-2.114-0.619-1.652-2.187
			c0.826-2.806,1.598-5.63,2.32-8.464c0.284-1.117,0.874-1.564,2.01-1.549c2.932,0.039,5.866,0.063,8.795-0.018
			c0.925-0.025,1.82,0.32,1.82,1.041C58.954,13.84,58.813,14.176,58.77,14.481z"/>
		<path fill-rule="evenodd" clip-rule="evenodd" fill="#FFFFFF" d="M15.249,38.568c1.029-2.793,1.789-5.81,2.594-8.735
			c0.43-1.561,1.189-2.135,2.777-2.078c2.702,0.098,5.41,0.04,8.115,0.023c1.579-0.009,2.089,0.632,1.62,2.199
			c-0.837,2.795-1.598,5.613-2.317,8.441c-0.281,1.106-0.85,1.573-1.992,1.558c-2.924-0.04-5.85-0.058-8.773,0.014
			c-0.92,0.022-1.583-0.323-2.023-0.982C15.249,38.86,15.249,38.714,15.249,38.568z"/>
	</g>
	<path fill-rule="evenodd" clip-rule="evenodd" fill="#FFFFFF" d="M47.185,4.177c-1.173,5.877-3.153,11.538-4.655,17.327
		c-0.88,3.396-0.932,3.382-4.434,3.382c-5.411,0-10.822-0.041-16.232,0.021c-1.972,0.023-2.457-0.659-1.914-2.561
		c1.723-6.037,3.322-12.11,4.969-18.169C32.342,4.177,39.763,4.177,47.185,4.177z"/>
	<path fill-rule="evenodd" clip-rule="evenodd" fill="#FFFFFF" d="M27.592,48.707c1.17-5.877,3.12-11.547,4.644-17.328
		c0.893-3.394,0.938-3.381,4.453-3.381c5.41-0.001,10.821,0.037,16.231-0.02c1.959-0.021,2.455,0.646,1.907,2.561
		c-1.729,6.035-3.324,12.109-4.97,18.168C42.435,48.707,35.013,48.707,27.592,48.707z"/>
	<path fill-rule="evenodd" clip-rule="evenodd" fill="#FFFFFF" d="M59.299,14.53c-0.996,2.637-1.447,5.289-2.202,8.022
		c-0.481,1.746-1.216,2.467-3.056,2.373c-2.664-0.135-5.34-0.055-8.011-0.028c-1.603,0.016-2.139-0.627-1.672-2.214
		c0.835-2.84,1.617-5.698,2.348-8.567c0.287-1.13,0.884-1.583,2.034-1.568c2.968,0.04,5.937,0.065,8.902-0.017
		c0.937-0.026,1.842,0.323,1.842,1.054C59.485,13.881,59.343,14.221,59.299,14.53z"/>
	<path fill-rule="evenodd" clip-rule="evenodd" fill="#FFFFFF" d="M15.249,38.91c1.041-2.826,1.811-5.878,2.625-8.841
		c0.435-1.58,1.204-2.161,2.812-2.104c2.734,0.099,5.476,0.04,8.213,0.023c1.599-0.009,2.115,0.639,1.64,2.226
		c-0.848,2.828-1.618,5.683-2.345,8.544c-0.285,1.121-0.861,1.594-2.017,1.577c-2.96-0.04-5.922-0.06-8.88,0.014
		c-0.932,0.022-1.603-0.326-2.048-0.994C15.249,39.206,15.249,39.059,15.249,38.91z"/>
</g>
<text transform="matrix(1 0 0 1 67.3506 21.9023)" fill="#FFFFFF" font-family="'TimesNewRomanPSMT'" font-size="18.9512">BANCO</text>
<text transform="matrix(1 0 0 1 67.3506 44.6436)" fill="#FFFFFF" font-family="'TimesNewRomanPSMT'" font-size="18.9512">BANQUITO</text>
</svg>
