<?xml version="1.0" standalone="no"?>
<!DOCTYPE svg PUBLIC "-//W3C//DTD SVG 20010904//EN"
 "http://www.w3.org/TR/2001/REC-SVG-20010904/DTD/svg10.dtd">
<svg version="1.0" xmlns="http://www.w3.org/2000/svg"
 width="450.000000pt" height="450.000000pt" viewBox="0 0 450.000000 450.000000"
 preserveAspectRatio="xMidYMid meet">

<g transform="translate(0.000000,450.000000) scale(0.100000,-0.100000)"
fill="#000000" stroke="none">
<path d="M568 4266 c-57 -20 -85 -42 -116 -88 l-27 -42 0 -1660 0 -1661 28
-42 c17 -28 44 -52 77 -68 l50 -25 1253 2 1253 3 42 27 c22 15 54 49 69 75
l28 48 3 1463 c1 804 4 1462 6 1462 2 0 28 -5 57 -10 30 -6 169 -31 309 -56
304 -53 316 -57 336 -95 16 -32 41 115 -302 -1784 -69 -379 -154 -852 -190
-1050 -59 -332 -66 -362 -90 -383 -14 -12 -34 -22 -44 -22 -15 0 -930 162
-1052 186 -21 4 -34 -1 -53 -20 -48 -49 -23 -99 58 -115 249 -49 1008 -181
1042 -181 77 0 151 44 185 110 11 21 31 102 45 181 14 79 69 380 121 669 52
289 101 561 109 605 8 44 55 303 104 575 49 272 117 648 151 835 67 370 68
397 25 471 -43 74 -77 86 -385 142 -151 28 -310 56 -352 62 -43 7 -78 16 -78
19 -4 220 -14 264 -77 323 -65 61 -7 58 -1336 58 -985 -1 -1219 -3 -1249 -14z
m2499 -148 l23 -21 0 -1619 0 -1619 -25 -24 -24 -25 -1221 0 -1221 0 -24 25
-25 24 0 1617 0 1618 22 23 21 23 1226 0 1225 0 23 -22z"/>
<path d="M979 3941 c-253 -81 -366 -371 -233 -598 78 -132 252 -211 404 -185
328 58 453 456 213 683 -81 77 -147 103 -263 106 -52 1 -107 -2 -121 -6z m201
-137 c22 -9 40 -19 40 -23 -1 -3 -12 -19 -26 -36 -14 -16 -48 -58 -76 -93
l-50 -62 -25 20 c-33 25 -68 25 -93 0 -36 -36 -26 -68 38 -127 59 -55 92 -65
124 -40 9 6 60 65 112 131 l96 118 17 -38 c9 -22 16 -66 16 -99 1 -148 -112
-265 -256 -265 -82 0 -130 17 -183 63 -186 164 -75 462 173 466 29 1 71 -6 93
-15z"/>
<path d="M1704 3575 c-18 -28 -13 -64 12 -89 14 -14 79 -16 570 -16 541 0 554
0 574 20 25 25 26 72 2 93 -17 15 -72 17 -580 17 l-562 0 -16 -25z"/>
<path d="M1560 3278 c-45 -16 -52 -77 -13 -107 26 -21 30 -21 665 -19 620 3
640 4 654 22 20 27 18 70 -4 90 -17 15 -77 16 -651 19 -348 1 -641 -1 -651 -5z"/>
<path d="M997 2950 c-112 -29 -219 -116 -270 -219 -29 -61 -32 -73 -32 -171 0
-97 2 -110 31 -170 38 -80 107 -151 188 -193 58 -30 67 -32 171 -32 105 0 114
2 177 33 107 53 191 158 218 274 54 236 -123 469 -368 483 -42 2 -94 0 -115
-5z m192 -146 l33 -14 -28 -37 c-15 -21 -48 -63 -73 -93 -25 -30 -46 -56 -47
-58 -1 -2 -19 6 -39 17 -52 28 -105 4 -105 -48 0 -30 89 -124 127 -136 35 -10
55 7 154 127 50 62 95 117 100 122 16 18 43 -59 43 -124 0 -147 -102 -256
-250 -268 -148 -11 -282 111 -283 260 -2 95 62 202 148 247 57 31 151 33 220
5z"/>
<path d="M1715 2585 c-30 -29 -32 -55 -6 -86 l19 -24 555 0 c532 0 556 1 576
19 21 19 28 61 13 82 -21 32 -51 34 -592 34 l-541 0 -24 -25z"/>
<path d="M1542 2270 c-27 -26 -28 -64 -2 -90 20 -20 33 -20 663 -20 611 0 645
1 660 18 23 25 21 68 -3 92 -20 20 -33 20 -658 20 -628 0 -639 0 -660 -20z"/>
<path d="M962 1942 c-82 -29 -157 -87 -202 -154 -55 -83 -73 -151 -68 -252 18
-341 435 -499 677 -258 195 195 141 520 -107 643 -58 29 -79 33 -157 36 -69 3
-102 -1 -143 -15z m198 -122 c70 -20 70 -21 -14 -124 l-78 -96 -25 20 c-33 26
-63 25 -91 0 -38 -36 -29 -71 34 -129 43 -39 63 -51 88 -51 34 0 45 10 180
178 32 39 62 72 66 72 5 0 13 -15 19 -32 44 -143 -6 -268 -134 -333 -102 -52
-208 -38 -295 41 -54 49 -81 103 -87 176 -17 180 162 328 337 278z"/>
<path d="M1710 1588 c-25 -28 -26 -62 0 -88 20 -20 33 -20 578 -20 529 0 560
1 575 18 22 25 21 75 -1 95 -17 15 -71 17 -575 17 l-556 0 -21 -22z"/>
<path d="M1536 1268 c-22 -32 -20 -61 7 -86 l23 -22 635 0 c705 0 679 -2 679
64 0 69 36 66 -683 66 l-646 0 -15 -22z"/>
</g>
</svg>
