<?xml version="1.0" standalone="no"?>
<!DOCTYPE svg PUBLIC "-//W3C//DTD SVG 20010904//EN"
 "http://www.w3.org/TR/2001/REC-SVG-20010904/DTD/svg10.dtd">
<svg version="1.0" xmlns="http://www.w3.org/2000/svg"
 width="980.000000pt" height="980.000000pt" viewBox="0 0 980.000000 980.000000"
 preserveAspectRatio="xMidYMid meet">

<g transform="translate(0.000000,980.000000) scale(0.100000,-0.100000)"
fill="#000000" stroke="none">
<path d="M4585 8439 c-326 -32 -650 -107 -940 -216 -169 -63 -476 -216 -630
-313 -567 -356 -1023 -863 -1308 -1452 -28 -60 -56 -108 -62 -108 -5 0 -159
36 -341 82 l-331 82 -47 -18 c-63 -24 -100 -79 -99 -144 1 -59 435 -1577 461
-1611 40 -55 132 -77 190 -47 29 15 170 157 627 631 159 165 342 354 406 420
143 148 149 157 149 220 0 58 -25 106 -70 133 -16 11 -163 52 -325 93 -162 40
-295 77 -295 81 0 13 63 136 126 244 431 749 1126 1284 1959 1509 456 123 974
143 1445 54 286 -54 552 -144 835 -284 558 -275 1012 -693 1343 -1235 77 -126
106 -150 180 -150 75 0 132 44 151 116 14 54 4 87 -66 203 -152 256 -331 484
-550 699 -561 551 -1261 891 -2053 998 -145 19 -613 28 -755 13z m-2855 -2439
c256 -64 463 -120 462 -126 -9 -22 -696 -724 -703 -717 -6 7 -279 953 -279
968 0 3 12 2 28 -2 15 -3 236 -59 492 -123z"/>
<path d="M4790 6939 c-375 -46 -714 -189 -995 -420 -87 -71 -246 -234 -307
-314 -435 -574 -512 -1339 -199 -1980 279 -569 803 -954 1431 -1051 139 -21
410 -22 549 0 628 97 1153 483 1432 1051 69 142 119 290 156 464 25 116 27
145 27 356 1 198 -2 247 -22 348 -110 575 -467 1060 -983 1336 -178 95 -377
162 -581 196 -112 19 -404 27 -508 14z m475 -329 c319 -55 612 -207 845 -440
428 -428 575 -1045 385 -1616 -118 -356 -370 -667 -702 -866 -423 -254 -973
-287 -1431 -85 -748 329 -1128 1186 -867 1953 186 546 660 954 1222 1053 153
27 392 28 548 1z"/>
<path d="M4922 6213 c-58 -28 -77 -67 -80 -164 l-4 -86 -62 -30 c-122 -61
-226 -180 -272 -314 -21 -60 -26 -93 -26 -174 -1 -120 22 -201 81 -293 95
-146 223 -228 399 -254 43 -6 93 -19 112 -28 113 -58 159 -191 106 -305 -39
-84 -115 -135 -201 -135 -67 0 -102 19 -177 95 l-67 67 -63 -4 c-91 -5 -137
-45 -153 -131 -17 -88 103 -232 248 -297 l77 -35 0 -70 c0 -81 20 -123 72
-155 54 -33 92 -35 145 -9 72 36 93 75 93 170 l0 79 71 35 c277 140 377 499
214 770 -45 74 -74 106 -148 161 -70 52 -145 82 -254 99 -128 21 -182 57 -222
145 -60 132 16 286 160 320 80 19 128 1 210 -81 72 -73 113 -89 176 -70 99 29
142 131 97 228 -31 64 -126 148 -218 193 l-86 42 0 64 c0 45 -6 77 -20 104
-36 70 -133 100 -208 63z"/>
<path d="M8294 5092 c-22 -16 -57 -49 -79 -74 -22 -25 -236 -247 -475 -494
-590 -610 -573 -592 -588 -621 -32 -59 -8 -152 48 -195 15 -10 151 -50 325
-94 165 -42 302 -78 304 -80 6 -6 -28 -76 -102 -209 -493 -890 -1362 -1488
-2367 -1629 -621 -88 -1242 3 -1813 265 -335 153 -629 356 -901 619 -206 200
-424 477 -545 692 -54 95 -113 129 -196 114 -83 -16 -141 -113 -115 -192 32
-97 242 -406 409 -604 88 -105 328 -339 442 -433 524 -428 1123 -687 1814
-782 158 -22 561 -31 737 -16 846 73 1621 433 2218 1031 278 277 469 541 652
896 l88 172 313 -79 c171 -43 331 -79 355 -79 51 0 91 18 125 59 51 62 56 38
-183 879 -122 427 -230 790 -239 807 -44 78 -153 100 -227 47z m158 -928 c75
-263 135 -481 132 -483 -5 -5 -948 226 -972 238 -8 5 56 78 185 211 108 113
265 275 348 361 82 86 155 155 160 154 6 -1 72 -217 147 -481z"/>
</g>
</svg>
