<?xml version="1.0" standalone="no"?>
<!DOCTYPE svg PUBLIC "-//W3C//DTD SVG 20010904//EN"
 "http://www.w3.org/TR/2001/REC-SVG-20010904/DTD/svg10.dtd">
<svg version="1.0" xmlns="http://www.w3.org/2000/svg"
 width="1920.000000pt" height="1920.000000pt" viewBox="0 0 1920.000000 1920.000000"
 preserveAspectRatio="xMidYMid meet">

<g transform="translate(0.000000,1920.000000) scale(0.100000,-0.100000)"
fill="#000000" stroke="none">
<path d="M12600 16094 c-322 -27 -483 -51 -700 -104 -549 -135 -1050 -386
-1505 -754 -148 -120 -418 -393 -541 -546 -477 -598 -746 -1241 -841 -2010
-24 -201 -24 -647 1 -850 57 -469 169 -859 366 -1267 l78 -162 187 -60 c217
-70 484 -139 681 -176 207 -38 201 -45 81 103 -543 673 -787 1521 -682 2372
125 1005 725 1885 1615 2367 299 162 654 280 1003 335 190 29 588 36 787 14
590 -68 1130 -290 1590 -656 136 -108 385 -357 490 -490 381 -481 609 -1043
670 -1655 15 -143 15 -471 0 -605 -76 -711 -357 -1329 -842 -1853 -82 -89
-262 -254 -358 -329 l-35 -27 32 -1 c58 0 256 29 358 54 288 71 579 211 946
457 l115 77 91 183 c256 516 387 1014 412 1567 49 1075 -343 2104 -1093 2871
-307 313 -618 542 -996 735 -419 214 -821 335 -1295 391 -125 15 -521 27 -615
19z"/>
<path d="M12520 14101 l0 -180 -57 -16 c-280 -81 -496 -294 -573 -565 -27 -96
-37 -295 -21 -408 48 -329 229 -559 656 -837 334 -217 383 -252 456 -325 98
-97 131 -159 137 -261 8 -137 -41 -223 -157 -278 -49 -23 -69 -26 -161 -26
-89 0 -113 4 -157 24 -99 44 -158 135 -171 263 l-7 73 -337 3 -338 2 0 -67 c0
-92 25 -240 56 -332 102 -304 317 -502 631 -581 l43 -11 2 -177 3 -177 278 -3
277 -2 0 179 0 180 43 11 c190 50 368 159 483 298 70 84 147 241 174 352 39
163 37 356 -6 525 -21 83 -102 248 -157 321 -121 159 -276 283 -593 474 -115
69 -242 150 -284 181 -173 127 -238 248 -210 385 14 65 60 123 124 156 57 30
185 36 253 14 92 -30 155 -122 169 -243 l7 -63 338 0 339 0 0 28 c0 61 -22
212 -41 287 -11 44 -43 127 -71 185 -45 93 -61 115 -147 200 -78 78 -113 105
-186 142 -49 25 -123 56 -162 68 l-73 22 0 179 0 179 -280 0 -280 0 0 -179z"/>
<path d="M17532 10970 c-143 -38 -453 -216 -931 -539 -683 -459 -780 -520
-1016 -636 -170 -83 -326 -142 -471 -179 -87 -22 -129 -30 -260 -51 -29 -5
-32 -9 -38 -53 -9 -65 -56 -170 -109 -245 -374 -524 -1614 -724 -3572 -576
-312 23 -767 68 -775 76 -3 3 76 3 175 -1 684 -23 1451 -15 1912 19 1132 86
1767 320 1955 721 28 60 31 77 32 163 1 125 -19 187 -84 251 -86 87 -219 119
-490 120 -191 0 -340 -12 -820 -65 -777 -86 -986 -100 -1515 -99 -475 0 -644
10 -985 60 -521 76 -908 184 -1420 396 -604 251 -894 357 -1246 453 -502 138
-954 170 -1311 95 -384 -81 -688 -289 -916 -628 -65 -97 -173 -305 -208 -403
-21 -59 -37 -78 -191 -233 -92 -92 -168 -170 -168 -172 0 -2 348 -489 773
-1081 425 -593 927 -1293 1116 -1555 188 -263 344 -478 347 -478 3 0 73 30
157 66 740 322 1438 521 2162 619 588 79 1064 100 2420 110 1115 8 1421 22
1835 81 1390 198 2367 775 3475 2054 317 366 756 919 810 1021 82 156 85 309
7 452 -59 110 -197 210 -333 242 -88 20 -227 18 -317 -5z"/>
<path d="M4693 9470 c-18 -10 -225 -160 -460 -331 -621 -453 -618 -450 -621
-460 -3 -8 2481 -3493 2518 -3533 17 -18 35 -6 546 369 291 213 544 403 562
421 26 28 32 42 32 78 0 49 32 2 -1065 1531 -543 757 -956 1332 -1164 1622
-111 155 -213 291 -228 302 -32 26 -79 27 -120 1z"/>
<path d="M3114 8824 c-21 -15 -329 -239 -683 -498 -355 -259 -830 -606 -1055
-771 -226 -165 -409 -304 -408 -310 2 -5 494 -696 1094 -1535 601 -839 1265
-1767 1476 -2062 212 -296 389 -538 394 -538 16 0 2156 1569 2178 1597 28 36
27 100 -3 144 -13 19 -491 687 -1062 1484 -571 798 -1206 1684 -1411 1971
-244 340 -382 524 -399 532 -41 19 -79 14 -121 -14z"/>
</g>
</svg>
